<?xml version="1.0" encoding="UTF-8" standalone="no"?>
<!-- Created with Inkscape (http://www.inkscape.org/) -->

<svg
   xmlns:dc="http://purl.org/dc/elements/1.1/"
   xmlns:cc="http://creativecommons.org/ns#"
   xmlns:rdf="http://www.w3.org/1999/02/22-rdf-syntax-ns#"
   xmlns:svg="http://www.w3.org/2000/svg"
   xmlns="http://www.w3.org/2000/svg"
   xmlns:sodipodi="http://sodipodi.sourceforge.net/DTD/sodipodi-0.dtd"
   xmlns:inkscape="http://www.inkscape.org/namespaces/inkscape"
   width="150mm"
   height="150mm"
   viewBox="0 0 150 150"
   version="1.1"
   id="svg41"
   sodipodi:docname="signature_square.svg"
   inkscape:version="0.92.4 (5da689c313, 2019-01-14)">
  <defs
     id="defs35">
    <clipPath
       clipPathUnits="userSpaceOnUse"
       id="clipPath32">
      <rect
         style="fill:#ff00ff;stroke-width:0.26458332"
         id="rect34"
         width="171.58704"
         height="165.70711"
         x="1.8028905"
         y="75.225365" />
    </clipPath>
    <clipPath
       clipPathUnits="userSpaceOnUse"
       id="clipPath4546">
      <rect
         style="fill:#ff00ff;stroke-width:1.10250783"
         id="rect4548"
         width="150.06668"
         height="150.00139"
         x="1.8084518"
         y="75.231171" />
    </clipPath>
  </defs>
  <sodipodi:namedview
     id="base"
     pagecolor="#ffffff"
     bordercolor="#666666"
     borderopacity="1.0"
     inkscape:pageopacity="0.0"
     inkscape:pageshadow="2"
     inkscape:zoom="0.98994949"
     inkscape:cx="411.95299"
     inkscape:cy="294.71014"
     inkscape:document-units="mm"
     inkscape:current-layer="g33"
     showgrid="false"
     inkscape:window-width="1920"
     inkscape:window-height="1027"
     inkscape:window-x="1912"
     inkscape:window-y="-8"
     inkscape:window-maximized="1" />
  <metadata
     id="metadata38">
    <rdf:RDF>
      <cc:Work
         rdf:about="">
        <dc:format>image/svg+xml</dc:format>
        <dc:type
           rdf:resource="http://purl.org/dc/dcmitype/StillImage" />
        <dc:title />
      </cc:Work>
    </rdf:RDF>
  </metadata>
  <g
     inkscape:label="Layer 1"
     inkscape:groupmode="layer"
     id="layer1"
     transform="translate(0,-147)">
    <g
       id="g33"
       transform="translate(-1.8084518,71.75953)"
       clip-path="url(#clipPath32)">
      <g
         id="g16"
         style="fill:#0582ff;fill-opacity:1">
        <path
           clip-path="url(#clipPath4546)"
           inkscape:connector-curvature="0"
           d="m 56.376088,26.861926 -3.369293,1.438989 C 37.465297,50.041633 21.872994,75.782672 15.243034,99.023029 c -2.246032,8.614731 -3.349033,17.339001 -3.308478,25.606821 0.253048,13.15543 7.17476,32.65274 20.186547,31.92065 3.461707,-0.48386 5.342247,-1.19555 8.25731,-2.97395 1.992372,-1.62547 4.504267,-5.04663 5.960668,-7.15164 0.498982,0.80111 1.004488,1.59821 1.509382,2.39575 -2.898994,5.61951 -5.873977,11.696 -7.782991,16.84503 -3.55967,11.09753 -6.012747,22.91934 -2.583476,33.89549 3.155623,7.15148 7.36857,11.08776 15.111538,11.15181 3.519882,-0.053 6.778956,-1.79693 9.70707,-4.08903 4.431472,-4.4798 5.311764,-10.57541 5.07118,-16.07213 -1.442895,-15.34532 -7.506936,-28.18204 -14.662842,-40.21412 -0.600784,-0.98399 -1.210238,-1.96328 -1.819688,-2.94263 1.880053,-3.37692 3.913723,-6.66465 5.879981,-9.99151 1.259513,-2.12163 2.610168,-4.19126 4.040184,-6.20226 0.918097,1.55996 3.220568,0.36671 3.877848,-0.8294 0.04124,0.0804 0.08282,0.1635 0.124027,0.24519 -2.456162,4.25318 -6.529468,10.09585 -5.749733,14.51151 1.117868,5.39452 6.751038,3.92795 9.856478,0.99796 3.349944,-3.8895 0.177823,-9.1298 -1.458611,-12.91307 -0.476459,-1.11061 -1.040956,-2.13923 -1.525186,-3.13178 0.242908,-0.436 0.481518,-0.87455 0.711114,-1.31783 0.259619,-0.39836 0.822489,-2.38296 1.074094,-2.11514 0.37439,0.31552 0.774632,0.37808 1.194768,0.28156 0.974427,-0.5925 1.329304,-0.67805 1.483046,-1.53428 0.154092,0.39492 0.190849,0.8155 0.456373,0.8519 0.815852,-0.33134 0.940283,-0.63506 0.830828,-1.23595 -0.06398,-0.43521 -0.09467,-0.86896 -0.06944,-1.30826 0.0022,-0.27813 0.09518,-0.68622 0.144621,-0.827 1.306225,1.37739 3.451125,-0.36301 4.018155,-1.72582 0.730167,0.47234 1.695857,-0.14822 2.310523,-0.67377 0.612866,-0.6428 0.82004,-1.41465 0.849028,-2.25258 0.111208,0.14554 0.225328,0.28857 0.350529,0.42284 0.16324,0.16855 0.365113,0.25238 0.594272,0.2787 0.131825,9.7e-4 0.282786,0.004 0.402245,-0.0632 0.868813,-0.41655 1.108318,-0.63311 1.25319,-1.57882 0.04124,0.0636 0.08311,0.12674 0.123068,0.19107 0.389777,0.38739 0.731181,-0.16963 0.867223,-0.34862 -0.04188,-0.11488 -0.04357,-0.15713 -0.07422,-0.22267 -0.20076,-0.51037 -0.305552,-1.04861 -0.408473,-1.58505 -0.06193,-0.37674 -0.125235,-0.75696 -0.135998,-1.13873 0.281205,0.38451 0.588098,0.74417 0.875366,1.06547 1.599154,1.63522 4.09936,-0.47094 4.395406,-1.10195 1.453372,-2.72672 0.810131,-5.92976 -1.848802,-7.53198 l -0.714946,0.46306 c 0.793872,0.43842 1.543023,1.16052 1.939882,1.91211 0.305426,0.59764 0.503053,1.24702 0.623482,1.9054 0.142299,0.98623 -0.04435,2.10603 -0.352444,2.92874 -1.621226,3.24856 -3.780136,0.28633 -4.600936,-0.60912 -0.3493,-0.28 -0.797804,0.0165 -1.021417,0.44487 -0.06856,0.19397 -0.08004,0.4006 -0.0953,0.60432 -0.0047,0.21191 0.01175,0.42258 0.03591,0.63259 -0.211231,0.0567 -0.06833,-0.026 -0.314135,0.19249 -0.377751,0.19677 -0.579848,0.13374 -0.3855,0.42764 0.325561,0.607 0.380704,1.36762 0.321798,1.98442 -0.110015,0.60909 -0.145512,1.02631 -0.705368,0.67663 -0.237195,-0.23701 -0.42762,-0.51342 -0.63641,-0.7748 -0.19387,-0.26982 -0.394998,-0.53418 -0.576553,-0.81263 -0.952961,0.49637 -0.850773,0.15801 -0.78965,0.66609 0.0358,0.26439 0.08377,0.52819 0.08572,0.79588 0.252684,3.607 -3.090673,2.54654 -1.67602,0.22555 0.46992,-0.59354 0.99014,-0.9481 1.590789,-1.405 -0.639039,0.22515 -1.377839,0.71879 -1.58983,0.88017 -0.65068,0.5465 -1.163649,1.27147 -1.207693,2.06342 -2.45e-4,0.0287 0.0096,0.22667 -0.05124,0.88973 -0.09623,0.67458 -0.04598,0.71072 -0.541118,1.44282 -0.347759,0.389 -0.619079,0.69249 -1.087499,0.56554 -0.499888,-0.20856 -0.63712,-0.72268 -1.083674,-0.95964 -0.736066,-0.41048 -1.409763,0.28378 -1.666926,0.83609 -0.159729,-0.82003 -0.358616,-1.65113 -0.577992,-2.39288 -0.09454,-0.78454 -0.221561,-1.63906 -0.474554,-2.31101 -0.206584,-0.48615 -0.485226,-0.87462 -0.815028,-1.23067 -0.406349,-0.36701 -0.369134,-0.0364 -1.17753,0.69961 0.50219,1.14012 1.047354,2.35357 1.355189,3.38749 0.06313,0.53991 0.105469,1.08185 0.145575,1.62432 -0.01454,1.07413 0.296102,4.08933 -0.46833,3.60153 -0.416103,-0.41012 -0.497182,-1.00521 -0.664185,-1.4998 l -1.13491,0.63067 c -0.23332,1.46801 -0.876572,2.989 -1.48065,4.16516 -0.326887,-0.61581 -0.761658,-1.21996 -1.201475,-1.67362 -0.376244,-0.38598 -0.09165,-0.14053 -1.265161,0.5052 0.131386,0.38787 0.303462,0.79654 0.440539,1.13589 0.301977,1.71204 -1.57524,2.89505 -0.77193,-0.45876 l -3.384618,1.42079 c -3.742113,4.94488 -6.780545,10.35176 -9.638592,15.31123 -0.487443,-0.79036 -0.972124,-1.58235 -1.447128,-2.37996 0.881261,-1.66003 1.504326,-3.68084 1.902528,-5.06208 1.279356,-6.4179 2.508096,-16.27389 -1.26947,-21.36839 -4.231221,-5.00864 -9.79056,0.75861 -10.716517,5.21483 -0.623868,3.14028 0.06657,6.00993 0.877281,9.03283 1.050116,3.58407 2.528196,6.98274 3.97889,9.84115 0.66362,1.25121 1.371983,2.47632 2.100777,3.68919 -0.538376,1.05581 -1.144298,2.07679 -1.799095,3.06665 -2.675053,3.43157 -4.232797,6.19798 -8.374867,6.89661 -2.01982,0.30162 -4.200563,0.087 -6.013584,-0.57081 -2.113769,-0.90299 -3.979531,-1.95428 -5.520355,-3.70929 -4.053059,-4.67574 -6.143497,-10.80771 -7.207875,-16.29146 -2.09356,-12.87381 -1.120836,-24.76591 2.096962,-36.309419 C 21.613278,86.143294 26.067687,75.743853 31.075273,65.962266 35.476399,57.465221 40.8696,48.626129 45.641385,41.35005 49.528355,36.289866 52.960983,31.099874 56.376098,26.861993 Z m 114.270092,52.139283 -3.09539,1.322148 c -9.95091,12.361149 -19.10839,26.438943 -26.11202,38.599383 -6.15565,10.62139 -12.11714,21.87785 -15.85186,31.1061 -1.82581,-14.00682 0.3301,-29.40025 -5.81534,-39.79032 -9.84264,-12.750728 -18.88191,5.81739 -20.811471,15.70916 -0.35206,2.07159 -0.50811,4.30188 -0.55787,6.2243 -1.82625,-3.34471 -5.98212,-7.0203 -8.815068,-8.2389 -8.490684,-2.48005 -13.49216,5.40102 -13.208409,12.89873 0.266798,2.73897 0.801354,5.06433 1.720083,7.3702 0.926565,2.31022 2.183594,4.48645 3.643203,6.4982 2.744321,3.70021 3.463641,5.19026 7.162862,2.957 -1.526859,-1.45897 -2.853499,-3.09518 -4.160859,-4.74795 -1.899704,-2.67812 -3.18423,-5.15381 -4.187193,-7.90366 -0.603797,-1.872 -1.003718,-3.81432 -1.088459,-5.78325 -0.04597,-1.0679 0.018,-1.57964 0.09003,-2.6395 0.346658,-5.13058 3.776312,-8.17104 8.369122,-6.28319 2.554589,1.28137 4.326668,3.157 6.041348,5.38772 1.47684,1.93333 2.35647,4.19007 3.01876,6.50777 0.43843,1.46567 0.7017,2.96992 1.01329,4.46397 0.44838,2.08566 -0.0879,1.86496 2.233431,0.33473 0.96627,-0.33761 1.26626,-0.36785 1.25079,-0.77289 0.14186,-5.27999 -0.33112,-10.9651 0.20208,-15.72352 1.01852,-7.02901 5.92559,-19.96595 10.9751,-18.50861 2.40611,1.3778 3.72439,3.30972 4.91986,5.43224 9.22555,17.95836 2.12161,34.12326 3.49332,51.24333 -0.0103,0.007 -0.0435,0.0289 -0.0321,0.0225 0.92941,0.92136 3.05851,-0.70019 3.44208,-1.6157 0.1486,-1.29501 0.13456,-2.56258 0.42427,-3.79883 9.32132,-28.45445 27.35867,-57.22668 44.40658,-78.62387 0.44325,-0.549027 0.88656,-1.098266 1.32981,-1.647296 z M 45.784555,118.49128 c 2.092534,3.80905 2.641174,8.46304 2.496322,12.41218 -0.236244,3.53693 -0.634285,6.62957 -1.526621,9.59166 -2.020679,-3.56027 -3.581907,-7.63922 -4.662229,-11.19778 -0.788328,-2.95839 -1.426496,-5.85579 -0.746071,-8.91263 1.139473,-3.38769 3.031485,-3.99977 4.438599,-1.89343 z m 21.449795,4.25615 c -0.317363,0 -0.574637,0.25728 -0.574639,0.57464 -3e-6,0.31736 0.257274,0.57464 0.574639,0.57464 0.317363,0 0.57464,-0.25728 0.574637,-0.57464 -2e-6,-0.31736 -0.257276,-0.57464 -0.574637,-0.57464 z m -2.036613,8.61765 c 0.42363,0.80446 0.821129,1.62114 1.196684,2.44939 2.445389,6.27804 3.292275,13.06175 -1.647294,14.37314 -2.585258,0.30228 -4.033244,-1.28258 -4.619609,-3.63507 -0.716141,-4.85106 2.912518,-9.57796 5.070222,-13.18746 z m -16.119551,19.41366 c 7.489368,13.1038 13.983418,25.54025 15.176665,39.40579 0.101004,4.08436 -0.0791,7.9795 -1.074095,11.57704 -2.178021,4.56434 -3.037552,6.42803 -7.786341,6.88177 -2.310583,0.0598 -4.665204,-0.18486 -6.790304,-1.15646 -0.468363,-0.21415 -0.910123,-0.48208 -1.365244,-0.72309 -2.044392,-1.29001 -3.775533,-2.99528 -5.052502,-5.05298 -0.974794,-1.57078 -1.07684,-2.04569 -1.778506,-3.78304 -1.414774,-4.11638 -1.812022,-8.47445 -1.727743,-12.80532 0.01912,-0.9832 0.0929,-1.96463 0.13935,-2.94693 0.403217,-6.14728 2.192716,-12.07147 4.152236,-17.87411 1.713405,-4.64221 3.823954,-9.13189 6.106484,-13.52267 z M -7.1277111,71.678393 H 151.87514 V 225.23256 H -7.1277111 Z"
           style="fill:#0582ff;fill-opacity:1;stroke-width:0.24517879"
           id="path823" />
      </g>
    </g>
  </g>
</svg>
